<svg xmlns="http://www.w3.org/2000/svg" viewBox="0 0 233.14 236.13"><title>Asset 2</title><g id="Layer_2" data-name="Layer 2"><g id="Layer_1-2" data-name="Layer 1"><path d="M116.05,40.9c41.63-.21,75.48,33.48,75.73,75.36a75.8,75.8,0,0,1-151.59.95C39.82,75.16,74.24,40.57,116.05,40.9ZM106.5,80.43a146,146,0,0,0-26.64,2.13,113.1,113.1,0,0,0-11,2.65c-4.13,1.22-6.06,5.08-4.93,9.31,1,3.69,4.57,5.72,8.68,4.84,1.74-.37,3.45-.91,5.18-1.31a123.37,123.37,0,0,1,37.74-2.44c15.9,1.23,31.27,4.45,45.37,12.39a8.9,8.9,0,0,0,5.1.86,6.64,6.64,0,0,0,5.53-5.65A7.38,7.38,0,0,0,168,95.36a97.56,97.56,0,0,0-9.68-4.9C141.27,83.19,123.3,80.69,106.5,80.43Zm-2.62,26c-3.79.21-7.63.13-11.36.7-6.41,1-12.79,2.23-19.12,3.65-3.7.83-5.41,4.13-4.48,7.7.88,3.36,3.79,4.89,7.54,4.13,5.68-1.14,11.35-2.57,17.1-3.17a95.31,95.31,0,0,1,44.63,5.49c4.76,1.82,9.23,4.37,13.84,6.59,3.26,1.57,6.3.84,8-1.93a6.57,6.57,0,0,0-1.57-8.4,15.25,15.25,0,0,0-2-1.32C140.18,110.49,122.52,106.59,103.88,106.42Zm-.08,24.86a133.68,133.68,0,0,0-27.88,3.41A4.72,4.72,0,0,0,72.11,138c-1,3.27,1.23,7.63,6.56,6.29a104.38,104.38,0,0,1,29.25-3.08c12.5.45,24.32,3.42,35.17,9.82a12,12,0,0,0,2,1,4.61,4.61,0,0,0,6.31-4.91c-.23-2.37-1.69-3.78-3.63-4.91C134.33,134.44,119.7,131.35,103.8,131.28Z"/><polygon points="0 0 63.64 0 0.29 63.35 0 0"/><polygon points="233.14 0 169.5 0 232.85 63.35 233.14 0"/><polygon points="233.14 236.13 169.5 236.13 232.85 172.78 233.14 236.13"/><polygon points="0 236.13 63.64 236.13 0.29 172.78 0 236.13"/></g></g></svg>