<svg xmlns="http://www.w3.org/2000/svg" viewBox="0 0 233.13 236.13"><title>Asset 1</title><g id="Layer_2" data-name="Layer 2"><g id="Layer_1-2" data-name="Layer 1"><polygon points="0 0 63.63 0 0.28 63.35 0 0"/><polygon points="233.13 0 169.5 0 232.85 63.35 233.13 0"/><polygon points="233.13 236.13 169.5 236.13 232.85 172.78 233.13 236.13"/><polygon points="0 236.13 63.63 236.13 0.28 172.78 0 236.13"/><path d="M155,141.09V78.9L97,86.57v3c0,25,0,50,0,75a18.11,18.11,0,0,1-4,11.66c-7.51,9.58-21.26,14.41-31.88,11.2-13.42-4.06-17.52-18.14-8.34-28.76,5-5.82,11.49-8.62,19.12-9,3.39-.16,6.77-.49,10.44-.77V55.76l83.29-12.82V154.5c0,12.67-6.84,21.5-19.15,24.74a24.82,24.82,0,0,1-17.56-1.33c-9.71-4.64-13-15.26-7.32-24.42,5.06-8.22,12.85-11.91,22.27-12.37C147.46,140.94,151,141.09,155,141.09Z"/></g></g></svg>